<?xml version="1.0" encoding="UTF-8"?>
<svg version="1.1" viewBox="0 0 1788 1794" width="1788" height="1794" xmlns="http://www.w3.org/2000/svg">
<path transform="translate(1145,348)" d="m0 0h19l10 4 8 6 4 9 1 6v16l-4 20-8 22-11 24-25 50-10 19-7 13 2 9v5l4 2 5 3 10 25 9 28 13 44 2 6v12l-5 13-4 4-5 1h-23l-20 3-15 5 3 10 4 20 5 40 4 50 3 52 1 36v85l-2 14-3 10 13-3 23-6 15-6 16-8 12-9 11-11 8-13 4-10 2-11v-17l-4-18-7-16-8-14-13-17-9-11-12-13-6-8-5-9v-9l1-2 10-3h11l17 7 36 18 19 11 21 14 16 12 12 11 8 7 15 15 9 11 10 13 10 15 11 19 11 23 7 19 6 24 3 21v48l-3 24-8 36-8 28-10 28-10 23-10 20-12 20-14 21-9 12-9 11-18 20-12 12-8 7-15 13-20 15-18 12-21 12-27 14-26 11-33 11-36 9-34 6-35 4-14 1-29 1h-67l-33-2-33-4-38-7-25-7-26-10-24-11-19-11-16-11-14-11-14-12-21-21-18-22-10-15-15-25-12-22-13-27-11-28-9-30-8-32-6-35-4-35-1-14v-59l4-36 6-28 8-26 10-25 14-29 13-24 16-24 9-12 8-10 12-14 30-30 11-9 18-14 21-14 19-11 11-4-4-9v-8l8-16 7-12-13 11-14 10-2 1h-7l-5-4-6-11-1-4v-8l4-23 6-20 7-16 7-13 8-12 12-17-3-25-11-31-11-27-11-29-7-24-2-11v-24l4-10 8-7 11-4h14l17 5 17 8 22 13 14 10 18 14 16 12 11 9h2l1-4 14-7 24-8 29-7 18-3 12-1h19l24 3 21 5 16 6 15 9 9 7v2h6l7-11 12-14 14-14 8-7 14-11 15-10 16-8z" fill="#fff"/>
<path transform="translate(1145,348)" d="m0 0h19l10 4 8 6 4 9 1 6v16l-4 20-8 22-11 24-25 50-10 19-7 13 2 9v5l4 2 5 3 10 25 9 28 13 44 2 6v12l-5 13-4 4-5 1h-23l-20 3-15 5 3 10 4 20 5 40 4 50 3 52 1 36v85l-2 14-3 10 13-3 23-6 15-6 16-8 12-9 11-11 8-13 4-10 2-11v-17l-4-18-7-16-8-14-13-17-9-11-12-13-6-8-5-9v-9l1-2 10-3h11l17 7 36 18 19 11 21 14 16 12 12 11 8 7 15 15 9 11 10 13 10 15 11 19 11 23 7 19 6 24 3 21v48l-3 24-8 36-8 28-10 28-10 23-10 20-12 20-14 21-9 12-9 11-18 20-12 12-8 7-15 13-20 15-18 12-21 12-27 14-26 11-33 11-36 9-34 6-35 4-14 1-29 1h-67l-33-2-33-4-38-7-25-7-26-10-24-11-19-11-16-11-14-11-14-12-21-21-18-22-10-15-15-25-12-22-13-27-11-28-9-30-8-32-6-35-4-35-1-14v-59l4-36 6-28 8-26 10-25 14-29 13-24 16-24 9-12 8-10 12-14 30-30 11-9 18-14 21-14 19-11 11-4-4-9v-8l8-16 7-12-13 11-14 10-2 1h-7l-5-4-6-11-1-4v-8l4-23 6-20 7-16 7-13 8-12 12-17-3-25-11-31-11-27-11-29-7-24-2-11v-24l4-10 8-7 11-4h14l17 5 17 8 22 13 14 10 18 14 16 12 11 9h2l1-4 14-7 24-8 29-7 18-3 12-1h19l24 3 21 5 16 6 15 9 9 7v2h6l7-11 12-14 14-14 8-7 14-11 15-10 16-8zm-414 301m-1 1m-1 1m363 46-15 8-12 9-11 10-8 7-38 38-11 9-12 9-15 9-11 5-16 4h-14l-12-3-16-8-14-10-11-9-32-26-19-14-17-11-18-10-18-6-11-2-35-1-6-4-2-2-13 13-8 7-12 11-8 7-13 12-21 21-7 8-9 10-9 11-14 18-20 30-13 23-15 30-10 25-8 26-5 22-4 29-1 11v58l3 33 5 34 8 36 9 31 8 21 13 29 14 26 14 23 11 15 9 11 12 13 15 15 11 9 13 10 17 11 23 12 25 10 22 7 27 6 41 6 24 2 19 1h73l27-1 32-3 33-5 28-6 27-8 20-7 25-11 20-10 23-13 21-14 13-10 11-9 13-11 17-16 11-12 13-15 13-18 11-17 9-15 9-16 10-23 9-25 9-33 6-29 3-27v-29l-2-18-5-23-7-21-10-22-11-18-10-14-9-11-9-10-20-20-11-9-19-14-25-15-7-4-2 1 11 17 8 15 6 16 3 13 1 8v19l-3 16-6 17-8 15-10 13-10 9-14 9-16 8-27 9-27 6-22 3-12 1h-44l-36-3-58-6-41-3-22-1h-27l-37 2-31 4-26 6-26 9-28 12-33 16-66 33-9 4-24 6 3-5 17-17 14-10 35-23 24-15 21-12 23-12 19-8 21-7 30-7 28-4 27-2h57l50 4 79 9 26 2h35l12-1-1-11-1-6-2-114-2-142v-41l2-5z" fill="#fff"/>
<path transform="translate(1145,348)" d="m0 0h19l10 4 8 6 4 9 1 6v16l-4 20-8 22-11 24-25 50-10 19-7 13 2 9v5l4 2 5 3 10 25 9 28 13 44 2 6v12l-5 13-4 4-5 1h-23l-20 3-15 5 3 10 4 20 5 40 4 50 3 52 1 36v85l-2 14-3 10 13-3 23-6 15-6 16-8 12-9 11-11 8-13 4-10 2-11v-17l-4-18-7-16-8-14-13-17-9-11-12-13-6-8-5-9v-9l1-2 10-3h11l17 7 36 18 19 11 21 14 16 12 12 11 8 7 15 15 9 11 10 13 10 15 11 19 11 23 7 19 6 24 3 21v48l-3 24-8 36-8 28-10 28-10 23-10 20-12 20-14 21-9 12-9 11-18 20-12 12-8 7-15 13-20 15-18 12-21 12-27 14-26 11-33 11-36 9-34 6-35 4-14 1-29 1h-67l-33-2-33-4-38-7-25-7-26-10-24-11-19-11-16-11-14-11-14-12-21-21-18-22-10-15-15-25-12-22-13-27-11-28-9-30-8-32-6-35-4-35-1-14v-59l4-36 6-28 8-26 10-25 14-29 13-24 16-24 9-12 8-10 12-14 30-30 11-9 18-14 21-14 19-11 11-4-4-9v-8l8-16 7-12-13 11-14 10-2 1h-7l-5-4-6-11-1-4v-8l4-23 6-20 7-16 7-13 8-12 12-17-3-25-11-31-11-27-11-29-7-24-2-11v-24l4-10 8-7 11-4h14l17 5 17 8 22 13 14 10 18 14 16 12 11 9h2l1-4 14-7 24-8 29-7 18-3 12-1h19l24 3 21 5 16 6 15 9 9 7v2h6l7-11 12-14 14-14 8-7 14-11 15-10 16-8zm4 21-14 5-14 8-16 11-15 10-27 16-21 12h-6l-1 3-3 2h-9l-20-3-28-7-20-3-13-1h-19l-47 4-35 2-5 2 1 8-6 3h-9l-9-4-14-9-21-16-4-1-5-5-17-11-21-12-13-5h-14l-6 4-2 2v14l4 22 9 35 9 26 6 18 3 16v5h-1v22l2 2 7-6 6-1-9 15-14 31-7 21-5 21-3 17 1 3 14-10 26-14 7-3h9l-4 15-11 27-8 18v3l20-2h17l14 3 12 5 15 8 12 8 19 14 17 14 10 8 17 14 15 12 13 8 12 4h15l12-5 16-10 13-11 8-7 23-23 7-8 7-7 7-8 14-13 15-10 14-7 15-5 18-4 25-3-6-24-7-26-3-17-3-33-3-9h-2l-6 10v2l-5 2-3 1 1-13 12-36 7-16 31-62 8-18 6-18 2-9v-18l-6-3zm-418 280m-1 1m-1 1m363 46-15 8-12 9-11 10-8 7-38 38-11 9-12 9-15 9-11 5-16 4h-14l-12-3-16-8-14-10-11-9-32-26-19-14-17-11-18-10-18-6-11-2-35-1-6-4-2-2-13 13-8 7-12 11-8 7-13 12-21 21-7 8-9 10-9 11-14 18-20 30-13 23-15 30-10 25-8 26-5 22-4 29-1 11v58l3 33 5 34 8 36 9 31 8 21 13 29 14 26 14 23 11 15 9 11 12 13 15 15 11 9 13 10 17 11 23 12 25 10 22 7 27 6 41 6 24 2 19 1h73l27-1 32-3 33-5 28-6 27-8 20-7 25-11 20-10 23-13 21-14 13-10 11-9 13-11 17-16 11-12 13-15 13-18 11-17 9-15 9-16 10-23 9-25 9-33 6-29 3-27v-29l-2-18-5-23-7-21-10-22-11-18-10-14-9-11-9-10-20-20-11-9-19-14-25-15-7-4-2 1 11 17 8 15 6 16 3 13 1 8v19l-3 16-6 17-8 15-10 13-10 9-14 9-16 8-27 9-27 6-22 3-12 1h-44l-36-3-58-6-41-3-22-1h-27l-37 2-31 4-26 6-26 9-28 12-33 16-66 33-9 4-24 6 3-5 17-17 14-10 35-23 24-15 21-12 23-12 19-8 21-7 30-7 28-4 27-2h57l50 4 79 9 26 2h35l12-1-1-11-1-6-2-114-2-142v-41l2-5z"/>
<path transform="translate(1044,573)" d="m0 0h19l9 3-1 9-8 7-10 6-21 8-15 9-12 11-9 10-9 11-7 7-3-2v-8l6-18 12-23 11-12 10-7 17-8z"/>
<path transform="translate(812,589)" d="m0 0h30l15 4 16 8 8 6 7 7 3 7 1 5v13l-3 12-3 5-5-3-10-21-8-7-11-5-24-7-23-9-5-4-3-5 4-4z"/>
<path transform="translate(726,436)" d="m0 0h9l12 6 14 11 13 12 4 4 2 6v4h-10l-33-16 3 16v13l-5-3-8-14-9-19-2-7v-7l3-4z"/>
<path transform="translate(1103,408)" d="m0 0h9l5 3 1 7-2 14-8 26-6 14-5 4-2-6v-13l2-17v-7l-15 9-11 3 7-14 10-13 7-7z"/>
<path transform="translate(933,717)" d="m0 0 17 2 5 3v10l-6 12-7 2-8-4-9-8-5-10 1-4z"/>
</svg>
